# xmcd
#
# Track frame offsets: 
#        150
#        17268
#        34396
#        52508
#        70071
#        87330
#        104475
#        122133
#        138974
#        156250
#        174312
#        190186
#
# Disc length: 2705 seconds
#
# Revision: 0
# Processed by: cddbd v1.5.2PL0 Copyright (c) Steve Scherf et al.
# Submitted via: ExactAudioCopy v1.0b1
#
DISCID=930a8f0c
DTITLE=Jason Dean - Jason Dean - More Favourites
DYEAR=2000
DGENRE=Country
TTITLE0=That's What I Loke About You
TTITLE1=Walkin' In Memphis
TTITLE2=Rollin' With The Flow
TTITLE3=Late Night Lovin' Man
TTITLE4=You've Got A Friend
TTITLE5=Then I Kissed Her
TTITLE6=Summer Wind
TTITLE7=Prop Me Up By The Jukebox
TTITLE8=Double Bogey Blues
TTITLE9=Save The Best For Last
TTITLE10=No Way Out (Jason Dean 1996)
TTITLE11=Love In The First Degree (Hurt and Dubois 1980)
EXTD=
EXTT0=
EXTT1=
EXTT2=
EXTT3=
EXTT4=
EXTT5=
EXTT6=
EXTT7=
EXTT8=
EXTT9=
EXTT10=
EXTT11=
PLAYORDER=
